<svg id="Capa_1" data-name="Capa 1" xmlns="http://www.w3.org/2000/svg" viewBox="0 0 15.25 16"><defs><style>.cls-1{fill:#71c285;}.cls-2{fill:#4c8056;}.cls-3{fill:#14a085;}.cls-4{fill:#24ae5f;}.cls-5{fill:#ecf0f1;}.cls-6{fill:#2c2f38;}</style></defs><title>favicon</title><path class="cls-1" d="M263.35,255.24l-1.94-1.12a6.29,6.29,0,0,0-1.53-2.92,2.14,2.14,0,0,1,.77-.52l.34-.1a1,1,0,0,0,1.1,0c.37-.38.15-1.21-.49-1.87s-1.48-.86-1.85-.49a1,1,0,0,0-.05,1.11h0a1.33,1.33,0,0,1-.1.34,2,2,0,0,1-.6.87,5.4,5.4,0,0,0-6,0h0a2.32,2.32,0,0,1-.64-.9,1.8,1.8,0,0,1-.1-.33h0a1,1,0,0,0,0-1.12c-.38-.37-1.21-.15-1.85.49s-.87,1.49-.49,1.87a1,1,0,0,0,1.1,0l.34.1a2.24,2.24,0,0,1,.81.55h0a6.32,6.32,0,0,0-1.49,2.88l-1.94,1.12a.53.53,0,0,0-.27.51l.13,2.61,0,.15a1.5,1.5,0,0,0,.15.42,1.06,1.06,0,0,0,1.39.48,1,1,0,0,0,.28-1.44,1.15,1.15,0,0,0-.79-.58L249.5,256l1-.58a4.93,4.93,0,0,0,2.45,3.85l-.45,1.34a1.15,1.15,0,0,0,0,.61l.18.74-.24,0a1.94,1.94,0,0,0-1.65,1.4c0,.35.74.64,1.65.64s1.66-.29,1.66-.64c0,0,0-.06,0-.08a.64.64,0,0,0,0-.24l-.51-2.05.4-1.21a6.07,6.07,0,0,0,4.12,0l.4,1.21L258,263a.48.48,0,0,0,0,.24.19.19,0,0,0,0,.08c0,.35.74.64,1.66.64s1.65-.29,1.65-.64a1.94,1.94,0,0,0-1.65-1.4l-.24,0,.18-.74a1.15,1.15,0,0,0,0-.61l-.45-1.34a4.93,4.93,0,0,0,2.45-3.85l1,.58-.07,1.36a1.19,1.19,0,0,0-.8.58,1,1,0,0,0-.09,1,1,1,0,0,0,1.77-.08,1.5,1.5,0,0,0,.15-.42l0-.15.13-2.61A.55.55,0,0,0,263.35,255.24Z" transform="translate(-248.38 -248)"/><path class="cls-2" d="M261,250.58l-.34.1a2.14,2.14,0,0,0-.77.52,2.67,2.67,0,0,0-.45.61,1.79,1.79,0,0,1-.56-.38,1.81,1.81,0,0,1-.39-.57,2.68,2.68,0,0,0,.52-.36,2,2,0,0,0,.6-.87,1.33,1.33,0,0,0,.1-.34,2.53,2.53,0,0,0,.53.76A2.67,2.67,0,0,0,261,250.58Z" transform="translate(-248.38 -248)"/><path class="cls-3" d="M254.07,263.36c0,.35-.74.64-1.66.64s-1.65-.29-1.65-.64a1.94,1.94,0,0,1,1.65-1.4l.24,0a2.07,2.07,0,0,1,1.41,1.29S254.07,263.33,254.07,263.36Z" transform="translate(-248.38 -248)"/><path class="cls-1" d="M254.06,263.28a2.07,2.07,0,0,0-1.41-1.29l-.18-.74a1.15,1.15,0,0,1,0-.61l.45-1.34a5.76,5.76,0,0,0,1,.48l-.4,1.21.51,2.05A.64.64,0,0,1,254.06,263.28Z" transform="translate(-248.38 -248)"/><path class="cls-3" d="M261.24,263.36c0,.35-.74.64-1.65.64s-1.66-.29-1.66-.64a.19.19,0,0,1,0-.08,2,2,0,0,1,1.41-1.29l.24,0A1.94,1.94,0,0,1,261.24,263.36Z" transform="translate(-248.38 -248)"/><path class="cls-1" d="M259.53,261.25l-.18.74a2,2,0,0,0-1.41,1.29.48.48,0,0,1,0-.24l.51-2.05-.4-1.21a6.13,6.13,0,0,0,1-.48l.45,1.34A1.15,1.15,0,0,1,259.53,261.25Z" transform="translate(-248.38 -248)"/><path class="cls-4" d="M261.41,254.12a6.29,6.29,0,0,0-1.53-2.92,2.67,2.67,0,0,0-.45.61,1.79,1.79,0,0,1-.56-.38,1.81,1.81,0,0,1-.39-.57,2.68,2.68,0,0,0,.52-.36,5.4,5.4,0,0,0-6,0,2.56,2.56,0,0,0,.48.33,1.85,1.85,0,0,1-.94.95,2.9,2.9,0,0,0-.41-.58h0a6.32,6.32,0,0,0-1.49,2.88,5.05,5.05,0,0,0-.11,1c0,.11,0,.21,0,.31a4.93,4.93,0,0,0,2.45,3.85,5.76,5.76,0,0,0,1,.48,5.94,5.94,0,0,0,5.12-.48,4.9,4.9,0,0,0,2.44-3.85,3,3,0,0,0,0-.31A5.89,5.89,0,0,0,261.41,254.12ZM256,256a2.49,2.49,0,1,1,2.48-2.48A2.48,2.48,0,0,1,256,256Z" transform="translate(-248.38 -248)"/><path class="cls-2" d="M253.44,250.86a1.85,1.85,0,0,1-.94.95,2.9,2.9,0,0,0-.41-.58,2.24,2.24,0,0,0-.81-.55l-.34-.1a2.71,2.71,0,0,0,1.28-1.28,1.8,1.8,0,0,0,.1.33,2.32,2.32,0,0,0,.64.9h0A2.56,2.56,0,0,0,253.44,250.86Z" transform="translate(-248.38 -248)"/><path class="cls-5" d="M256,251a2.49,2.49,0,1,0,2.48,2.49A2.49,2.49,0,0,0,256,251Zm0,3.6a1.12,1.12,0,0,1-.8-1.9,1.11,1.11,0,0,1,1.9.79,1.11,1.11,0,0,1-1.1,1.11Z" transform="translate(-248.38 -248)"/><path class="cls-6" d="M257.1,253.5a1.09,1.09,0,1,1-.32-.79A1.1,1.1,0,0,1,257.1,253.5Z" transform="translate(-248.38 -248)"/><path class="cls-6" d="M257.38,257.38h-2.76a.29.29,0,0,1-.28-.28.28.28,0,0,1,.28-.27h2.76a.27.27,0,0,1,.27.27A.28.28,0,0,1,257.38,257.38Z" transform="translate(-248.38 -248)"/><path class="cls-6" d="M256.27,258.48h-.55a.28.28,0,0,1,0-.55h.55a.28.28,0,1,1,0,.55Z" transform="translate(-248.38 -248)"/></svg>