<svg xmlns="http://www.w3.org/2000/svg" viewBox="0 0 81 81">
  <defs>
    <style>
      .cls-1 {
        fill: #347437;
        stroke: #707070;
      }

      .cls-2 {
        fill: #fff;
        stroke-linejoin: bevel;
      }

      .cls-3, .cls-5 {
        stroke: none;
      }

      .cls-4 {
        fill: none;
      }

      .cls-5 {
        fill: #707070;
      }
    </style>
  </defs>
  <g id="Group_6" data-name="Group 6" transform="translate(-1220 -362)">
    <g id="Ellipse_1" data-name="Ellipse 1" class="cls-1" transform="translate(1220 362)">
      <circle class="cls-3" cx="40.5" cy="40.5" r="40.5"/>
      <circle class="cls-4" cx="40.5" cy="40.5" r="40"/>
    </g>
    <g id="plus" transform="translate(-285 455)">
      <g id="plus-2" data-name="plus" class="cls-2" transform="translate(1527 -102.443)">
        <path class="cls-3" d="M 19.7293529510498 69.328125 L 17.0987720489502 69.328125 C 15.37256240844727 69.328125 13.9681921005249 67.92375183105469 13.9681921005249 66.19755554199219 L 13.9681921005249 54.85993194580078 L 2.630582571029663 54.85993194580078 C 0.90437251329422 54.85993194580078 -0.4999974966049194 53.45556259155273 -0.4999974966049194 51.72935104370117 L -0.4999974966049194 49.09878158569336 C -0.4999974966049194 47.37257385253906 0.90437251329422 45.96819305419922 2.630582571029663 45.96819305419922 L 13.9681921005249 45.96819305419922 L 13.9681921005249 34.63058090209961 C 13.9681921005249 32.90437316894531 15.37256240844727 31.50000190734863 17.0987720489502 31.50000190734863 L 19.7293529510498 31.50000190734863 C 21.45556259155273 31.50000190734863 22.85993194580078 32.90437316894531 22.85993194580078 34.63058090209961 L 22.85993194580078 45.96819305419922 L 34.19754409790039 45.96819305419922 C 35.92375183105469 45.96819305419922 37.32812118530273 47.37257385253906 37.32812118530273 49.09878158569336 L 37.32812118530273 51.72935104370117 C 37.32812118530273 53.45556259155273 35.92375183105469 54.85993194580078 34.19754409790039 54.85993194580078 L 22.85993194580078 54.85993194580078 L 22.85993194580078 66.19755554199219 C 22.85993194580078 67.92375183105469 21.45556259155273 69.328125 19.7293529510498 69.328125 Z"/>
        <path class="cls-5" d="M 17.0987720489502 32 C 15.64620208740234 32 14.46819305419922 33.17800903320312 14.46819305419922 34.63056945800781 L 14.46819305419922 46.46819305419922 L 2.630580902099609 46.46819305419922 C 1.178001403808594 46.46819305419922 3.814697265625e-06 47.64620208740234 3.814697265625e-06 49.09878158569336 L 3.814697265625e-06 51.72935104370117 C 3.814697265625e-06 53.18192291259766 1.178001403808594 54.35993194580078 2.630580902099609 54.35993194580078 L 14.46819305419922 54.35993194580078 L 14.46819305419922 66.19754028320312 C 14.46819305419922 67.65011596679688 15.64620208740234 68.828125 17.0987720489502 68.828125 L 19.7293529510498 68.828125 C 21.18192291259766 68.828125 22.35993194580078 67.65011596679688 22.35993194580078 66.19754028320312 L 22.35993194580078 54.35993194580078 L 34.19754409790039 54.35993194580078 C 35.65012359619141 54.35993194580078 36.82812118530273 53.18192291259766 36.82812118530273 51.72935104370117 L 36.82812118530273 49.09878158569336 C 36.82812118530273 47.64620208740234 35.65012359619141 46.46819305419922 34.19754409790039 46.46819305419922 L 22.35993194580078 46.46819305419922 L 22.35993194580078 34.63056945800781 C 22.35993194580078 33.17800903320312 21.18192291259766 32 19.7293529510498 32 L 17.0987720489502 32 M 17.0987720489502 31 L 19.7293529510498 31 C 21.73126220703125 31 23.35993194580078 32.62866973876953 23.35993194580078 34.63056945800781 L 23.35993194580078 45.46819305419922 L 34.19754409790039 45.46819305419922 C 36.1994514465332 45.46819305419922 37.82812118530273 47.09687423706055 37.82812118530273 49.09878158569336 L 37.82812118530273 51.72935104370117 C 37.82812118530273 53.73126220703125 36.1994514465332 55.35993194580078 34.19754409790039 55.35993194580078 L 23.35993194580078 55.35993194580078 L 23.35993194580078 66.19754028320312 C 23.35993194580078 68.19944763183594 21.73126220703125 69.828125 19.7293529510498 69.828125 L 17.0987720489502 69.828125 C 15.09686279296875 69.828125 13.46819305419922 68.19944763183594 13.46819305419922 66.19754028320312 L 13.46819305419922 55.35993194580078 L 2.630580902099609 55.35993194580078 C 0.6286735534667969 55.35993194580078 -0.9999961853027344 53.73126220703125 -0.9999961853027344 51.72935104370117 L -0.9999961853027344 49.09878158569336 C -0.9999961853027344 47.09687423706055 0.6286735534667969 45.46819305419922 2.630580902099609 45.46819305419922 L 13.46819305419922 45.46819305419922 L 13.46819305419922 34.63056945800781 C 13.46819305419922 32.62866973876953 15.09686279296875 31 17.0987720489502 31 Z"/>
      </g>
    </g>
  </g>
</svg>
