<svg xmlns="http://www.w3.org/2000/svg" viewBox="0 0 57.391 65.589">
  <g id="trash-alt" transform="translate(-582 -2325.148)">
    <path id="trash-alt-2" data-name="trash-alt" d="M24.6,24.084v27.67a1.537,1.537,0,0,1-1.537,1.537H19.984a1.537,1.537,0,0,1-1.537-1.537V24.084a1.537,1.537,0,0,1,1.537-1.537h3.074A1.537,1.537,0,0,1,24.6,24.084Zm12.81-1.537H34.332a1.537,1.537,0,0,0-1.537,1.537v27.67a1.537,1.537,0,0,0,1.537,1.537h3.074a1.537,1.537,0,0,0,1.537-1.537V24.084A1.537,1.537,0,0,0,37.406,22.546Zm16.91-12.3a3.074,3.074,0,0,1,3.075,3.074V14.86A1.537,1.537,0,0,1,55.853,16.4H53.291V59.44a6.149,6.149,0,0,1-6.149,6.149H10.248A6.149,6.149,0,0,1,4.1,59.44V16.4H1.537A1.537,1.537,0,0,1,0,14.86V13.323a3.074,3.074,0,0,1,3.074-3.074h9.532l4.358-7.263A6.149,6.149,0,0,1,22.237,0H35.153a6.149,6.149,0,0,1,5.273,2.985l4.358,7.263Zm-34.538,0H37.613L35.377,6.522a.769.769,0,0,0-.659-.373H22.673a.769.769,0,0,0-.659.373ZM47.142,16.4H10.248V58.672a.769.769,0,0,0,.769.769H46.374a.769.769,0,0,0,.769-.769Z" transform="translate(582 2325.148)"/>
  </g>
</svg>
